<svg xmlns="http://www.w3.org/2000/svg" width="453" height="151" viewBox="0 0 453 151"><defs><style>.a,.b{fill:#fff;}.b{stroke:#000;stroke-width:3px;}.c{fill:#19197b;font-size:50px;font-family:Poppins-Regular, Poppins;}.d{fill-rule:evenodd;}.e{stroke:none;}.f{fill:none;}</style></defs><rect class="a" width="453" height="151" rx="75.5"/><g class="b"><circle class="e" cx="75.5" cy="75.5" r="75.5"/><circle class="f" cx="75.5" cy="75.5" r="74"/></g><text class="c" transform="translate(170 93)"><tspan x="0" y="0">customers</tspan></text><path class="d" d="M85.95,101H58.492l-1.467-4.545-14.962-.017L.018,96.391C0,96.368.01,83.1,0,82-.023,73.377-.048,65.923,11.6,63l1.975-.491c6.267-1.545,14.058-3.464,15.516-6.968.171-.418.7-1.686-.633-4.368-8.025-16.127-9.554-30.3-4.312-39.9C27.714,4.745,34.23,1,42.017,1c7.725,0,14.2,3.691,17.75,10.118,5.242,9.482,3.754,23.7-4.183,40.032-1.308,2.7-.775,3.968-.6,4.391.629,1.5,2.379,2.686,4.687,3.691L67.838,43.1a2.249,2.249,0,0,1,1.954-1.2,2.512,2.512,0,0,1,1.954,3.8l-7.3,14.423H81.233l-7.3-14.423a2.512,2.512,0,0,1,1.954-3.8,2.249,2.249,0,0,1,1.954,1.2l8.621,17.032H100V73.7H96.55a.88.88,0,0,0-.8.541L85.95,101Zm9.879-36.318H50v4.527a4.935,4.935,0,0,1,3.729,3.045l7.729,24.2H83.121l8.821-24.05a5.237,5.237,0,0,1,3.887-3.2Zm-42.8-4.545a8.718,8.718,0,0,1-1.829-2.7c-1.042-2.473-.8-5.3.7-8.4,3.67-7.555,5.871-14.531,6.575-20.726.66-5.8-.084-10.871-2.275-14.838-2.821-5.109-7.854-7.918-14.179-7.918-6.375,0-11.45,2.859-14.287,8.055-3.954,7.237-3.181,17.932,2.167,30.583.636,1.505,1.393,3.15,2.225,4.821,1.546,3.1,1.8,5.923.767,8.4a9.81,9.81,0,0,1-3.58,4.2,29.261,29.261,0,0,1-8.487,3.673c-1.833.548-4.09,1.1-6.325,1.656l-1.962.486c-8.083,2.032-8.391,5.709-8.362,14.564l-.008,9.923H55.609L49.984,73.991a.993.993,0,0,0-.7-.3H45.83V60.136ZM66.663,73.9a2.091,2.091,0,1,0-4.167,0V87.541a2.091,2.091,0,1,0,4.167,0ZM75,73.568a2.091,2.091,0,1,0-4.167,0V87.2A2.091,2.091,0,1,0,75,87.2Zm8.321,0a2.091,2.091,0,1,0-4.167,0V87.2a2.091,2.091,0,1,0,4.167,0Z" transform="translate(33 24.29)"/></svg>