<svg xmlns="http://www.w3.org/2000/svg" width="167" height="52" viewBox="0 0 167 52"><g fill="#fff" stroke="#707070" stroke-width="1"><rect width="167" height="52" rx="26" stroke="none"/><rect x="0.5" y="0.5" width="166" height="51" rx="25.5" fill="none"/></g><g fill="#fff" stroke="#707070" stroke-width="1"><circle cx="26" cy="26" r="26" stroke="none"/><circle cx="26" cy="26" r="25.5" fill="none"/></g><path d="M7,24H2V15H7v1.735a17.731,17.731,0,0,0,1.765-.689,4.651,4.651,0,0,1,1.887-.417c1.214,0,2.2.5,4.3,1.2A1.7,1.7,0,0,1,16.13,18.14c1.124-.863,2.92-2.257,2.937-2.27a1.92,1.92,0,0,1,1.2-.434,1.738,1.738,0,0,1,1.751,1.708,1.861,1.861,0,0,1-.627,1.356c-1.378,1.28-2.445,2.233-3.387,3.074-.56.5-1.066.952-1.548,1.393a3.43,3.43,0,0,1-2.421,1.006,4.766,4.766,0,0,1-1.308-.2A26.438,26.438,0,0,0,7,22.668V24ZM6,16H3v7H6Zm1,5.664a29.562,29.562,0,0,1,6,1.147,2.627,2.627,0,0,0,2.782-.581c1.279-1.172,2.722-2.413,4.929-4.463.824-.765-.178-1.783-1.022-1.113,0,0-2.961,2.3-3.689,2.843a1.876,1.876,0,0,1-1.148.519,1.554,1.554,0,0,1-.349-.042c-.655-.151-1.883-.425-2.755-.7a.45.45,0,1,1,.268-.858c.447.093,1.594.35,2.2.52,1.017.281,1.276-.867.422-1.152-.562-.19-.537-.2-1.889-.665a4.284,4.284,0,0,0-3.585-.156A16.571,16.571,0,0,1,7,17.776v3.888ZM10.79,1.751,14,0l7,3.86v7.677l-7,3.735L7,11.537V3.818l3.784-2.064,0,0,0,0ZM13.5,7.766,8,4.9v6.035l5.5,2.935V7.766Zm1,0v6.105L20,10.937v-6l-5.5,2.83Zm1.77-2.035L10.8,2.884l-2.2,1.2L14,6.9ZM11.858,2.307l5.5,2.864L19.4,4.12,14,1.141,11.858,2.307Z" transform="translate(14 11)" fill-rule="evenodd"/><text transform="translate(57 31)" fill="#19197b" font-size="21" font-family="Poppins-Regular, Poppins"><tspan x="0" y="0">products</tspan></text></svg>