<svg xmlns="http://www.w3.org/2000/svg" width="472" height="190" viewBox="0 0 472 190"><defs><style>.a,.b{fill:#fff;}.b{stroke:#000;stroke-width:3px;}.c{fill-rule:evenodd;}.d{fill:#19197b;font-size:50px;font-family:Poppins-Regular, Poppins;}.e{stroke:none;}.f{fill:none;}</style></defs><rect class="a" width="453" height="151" rx="75.5" transform="translate(19 19)"/><circle class="a" cx="95" cy="95" r="95"/><g class="b" transform="translate(19 19)"><circle class="e" cx="75.5" cy="75.5" r="75.5"/><circle class="f" cx="75.5" cy="75.5" r="74"/></g><path class="c" d="M26.978,100H2V62.5H26.978v7.229c3.187-.825,6.6-2.063,8.817-2.871a27.191,27.191,0,0,1,9.427-1.737c6.065,0,11.015,2.079,21.5,5.021,3.2.892,5.375,2.983,5.87,5.442,5.615-3.6,14.587-9.4,14.672-9.458a10.823,10.823,0,0,1,5.995-1.808c4.756,0,8.747,3.179,8.747,7.117a7.28,7.28,0,0,1-3.132,5.65c-6.884,5.333-12.214,9.3-16.92,12.808-2.8,2.088-5.325,3.967-7.733,5.8a19.023,19.023,0,0,1-12.094,4.192,28.219,28.219,0,0,1-6.534-.833c-13.853-3.263-22.4-4.317-28.609-4.6V100Zm-5-33.333H7V95.833H21.982Zm5,23.6c10.451.492,22.005,2.9,29.968,4.779,4.081.963,8.8,1.475,13.9-2.421,6.389-4.883,13.6-10.054,24.623-18.6,4.116-3.187-.889-7.429-5.105-4.638,0,0-14.792,9.579-18.428,11.846C70.039,82.425,68.46,83.4,66.2,83.4a9.242,9.242,0,0,1-1.743-.175c-3.272-.629-9.407-1.771-13.763-2.921-2.872-.763-1.853-4.138,1.339-3.575,2.233.387,7.963,1.458,11,2.167,5.08,1.171,6.374-3.613,2.108-4.8-2.807-.792-2.683-.825-9.437-2.771-6.5-1.879-11.06-3.137-17.909-.65a93.64,93.64,0,0,1-10.81,3.392v16.2ZM45.91,7.3,61.946,0,96.915,16.083V48.071L61.946,63.633,26.978,48.071V15.908l18.9-8.6.01-.021.02.008ZM59.448,32.358,31.973,20.425V45.571L59.448,57.8Zm5,0V57.8L91.919,45.571v-25L64.444,32.363Zm8.842-8.479L45.96,12.017l-11,5.008,27,11.721ZM51.246,9.612l27.48,11.933,10.2-4.379-27-12.413L51.246,9.612Z" transform="translate(43 45)"/><text class="d" transform="translate(208 112)"><tspan x="0" y="0">products</tspan></text></svg>